<svg xmlns="http://www.w3.org/2000/svg" xmlns:xlink="http://www.w3.org/1999/xlink" width="500" zoomAndPan="magnify" viewBox="0 0 375 374.999991" height="500" preserveAspectRatio="xMidYMid meet" version="1.0"><defs><clipPath id="083dc0b5f5"><path d="M 47 27.175781 L 325 27.175781 L 325 56 L 47 56 Z M 47 27.175781 " clip-rule="nonzero"/></clipPath><clipPath id="1f06b10d8c"><path d="M 16.878906 58 L 117 58 L 117 180 L 16.878906 180 Z M 16.878906 58 " clip-rule="nonzero"/></clipPath><clipPath id="65c0174c95"><path d="M 255 58 L 355.128906 58 L 355.128906 180 L 255 180 Z M 255 58 " clip-rule="nonzero"/></clipPath><clipPath id="8a05cecc61"><path d="M 16.878906 161 L 355.128906 161 L 355.128906 345 L 16.878906 345 Z M 16.878906 161 " clip-rule="nonzero"/></clipPath></defs><g clip-path="url(#083dc0b5f5)"><path fill="#ffffff" d="M 62.285156 55.722656 C 55.679688 55.722656 49.675781 51.132812 48.246094 44.777344 C 46.445312 37.863281 50.527344 30.371094 57.375 28.050781 C 57.4375 28.027344 57.507812 28.007812 57.570312 27.992188 C 60.484375 27.175781 63.402344 27.210938 65.976562 27.238281 C 66.804688 27.25 67.625 27.257812 68.441406 27.238281 C 104.925781 27.277344 141.320312 27.269531 177.71875 27.257812 C 221.054688 27.25 265.863281 27.234375 309.9375 27.3125 C 313.871094 27.195312 317.710938 28.90625 320.484375 32.023438 C 323.292969 35.175781 324.570312 39.242188 323.996094 43.191406 C 323.628906 46.746094 321.824219 50.007812 318.917969 52.382812 C 315.957031 54.796875 312.179688 55.988281 308.503906 55.65625 C 273.503906 55.664062 238.507812 55.664062 203.507812 55.664062 C 156.816406 55.65625 110.125 55.65625 63.433594 55.671875 C 63.050781 55.703125 62.671875 55.722656 62.285156 55.722656 Z M 59.765625 35.417969 C 56.835938 36.46875 54.960938 39.921875 55.75 42.863281 C 55.761719 42.921875 55.777344 42.976562 55.792969 43.035156 C 56.4375 45.996094 59.691406 48.25 62.898438 47.945312 C 63.019531 47.933594 63.140625 47.925781 63.261719 47.925781 C 110.011719 47.910156 156.761719 47.914062 203.507812 47.914062 C 238.566406 47.914062 273.628906 47.921875 308.6875 47.910156 C 308.824219 47.910156 308.960938 47.914062 309.09375 47.933594 C 310.796875 48.113281 312.585938 47.550781 314.015625 46.386719 C 315.339844 45.300781 316.148438 43.871094 316.292969 42.34375 C 316.296875 42.273438 316.308594 42.199219 316.324219 42.125 C 316.582031 40.460938 315.972656 38.609375 314.699219 37.179688 C 313.449219 35.773438 311.773438 34.992188 310.136719 35.058594 C 310.085938 35.058594 310.046875 35.0625 309.984375 35.0625 C 265.894531 34.984375 221.070312 34.996094 177.714844 35.011719 C 141.316406 35.019531 104.917969 35.03125 68.523438 34.984375 C 67.710938 35.003906 66.792969 34.996094 65.878906 34.984375 C 63.671875 34.953125 61.582031 34.929688 59.765625 35.417969 Z M 59.765625 35.417969 " fill-opacity="1" fill-rule="nonzero"/></g><g clip-path="url(#1f06b10d8c)"><path fill="#ffffff" d="M 48.371094 179.523438 C 45.921875 179.523438 43.480469 179.347656 41.0625 178.988281 C 30.0625 176.988281 20.921875 168.472656 17.078125 156.742188 C 16.949219 156.355469 16.882812 155.949219 16.882812 155.539062 L 16.882812 148.027344 C 16.882812 147.457031 17.007812 146.890625 17.25 146.375 C 23.984375 132.085938 30.472656 117.351562 36.753906 103.113281 C 42.929688 89.089844 49.324219 74.585938 55.960938 60.460938 C 56.597656 59.105469 57.964844 58.238281 59.464844 58.238281 C 71.207031 58.226562 82.957031 58.230469 94.707031 58.230469 L 112.339844 58.238281 C 113.503906 58.238281 114.613281 58.765625 115.34375 59.667969 C 116.078125 60.574219 116.367188 61.769531 116.121094 62.910156 C 112.746094 78.828125 109.125 94.960938 105.625 110.566406 C 102.539062 124.332031 99.347656 138.5625 96.335938 152.578125 C 96.308594 152.6875 96.28125 152.796875 96.246094 152.902344 C 96.136719 153.257812 96.054688 153.636719 95.964844 154.015625 C 95.542969 155.835938 94.90625 158.570312 92.328125 160.34375 C 89.972656 162.140625 87.539062 163.84375 85.183594 165.496094 C 83.554688 166.636719 81.933594 167.773438 80.332031 168.945312 C 70.917969 175.828125 59.585938 179.523438 48.371094 179.523438 Z M 48.371094 179.523438 " fill-opacity="1" fill-rule="nonzero"/></g><path fill="#ffffff" d="M 140.003906 179.664062 C 134.066406 179.664062 128.148438 178.601562 122.695312 176.453125 C 116.707031 174.113281 112.421875 169.910156 108.277344 165.847656 C 105.625 163.242188 103.121094 160.789062 100.285156 158.914062 C 98.960938 158.046875 98.304688 156.460938 98.617188 154.914062 C 102.222656 137.117188 106.285156 119.121094 110.214844 101.71875 C 113.195312 88.53125 116.273438 74.898438 119.125 61.46875 C 119.5 59.703125 121.039062 58.429688 122.839844 58.398438 C 136.320312 58.15625 150.011719 58.199219 163.257812 58.246094 C 169.097656 58.265625 174.945312 58.285156 180.785156 58.28125 C 180.785156 58.28125 180.785156 58.28125 180.789062 58.28125 C 181.820312 58.28125 182.804688 58.6875 183.53125 59.417969 C 184.257812 60.144531 184.660156 61.132812 184.660156 62.160156 C 184.628906 73.242188 184.671875 84.515625 184.710938 95.417969 C 184.78125 115.269531 184.855469 135.796875 184.496094 155.996094 C 184.472656 157.4375 183.644531 158.746094 182.359375 159.390625 C 179.003906 161.070312 176.113281 163.644531 173.050781 166.367188 C 169.566406 169.46875 165.960938 172.679688 161.351562 174.832031 C 154.726562 178.042969 147.34375 179.664062 140.003906 179.664062 Z M 140.003906 179.664062 " fill-opacity="1" fill-rule="nonzero"/><path fill="#ffffff" d="M 232.101562 179.660156 C 225.539062 179.660156 218.8125 178.351562 212.503906 175.730469 C 207.121094 173.601562 203.007812 169.949219 199.027344 166.417969 C 195.933594 163.675781 193.015625 161.082031 189.640625 159.328125 C 188.375 158.671875 187.574219 157.378906 187.550781 155.957031 C 187.1875 134.347656 187.230469 112.378906 187.277344 91.140625 C 187.296875 81.476562 187.324219 71.816406 187.304688 62.160156 C 187.304688 61.132812 187.710938 60.144531 188.433594 59.417969 C 189.160156 58.695312 190.144531 58.28125 191.175781 58.28125 C 191.175781 58.28125 191.179688 58.28125 191.179688 58.28125 C 197.25 58.289062 203.316406 58.265625 209.390625 58.246094 C 222.40625 58.203125 235.859375 58.15625 249.113281 58.410156 C 250.917969 58.445312 252.453125 59.71875 252.824219 61.476562 C 255.753906 75.265625 258.898438 89.269531 261.933594 102.804688 C 265.753906 119.847656 269.710938 137.476562 273.289062 154.886719 C 273.609375 156.449219 272.945312 158.039062 271.613281 158.910156 C 268.820312 160.738281 266.382812 163.164062 263.796875 165.734375 C 260.113281 169.40625 256.296875 173.199219 251.078125 175.574219 C 245.335938 178.296875 238.804688 179.660156 232.101562 179.660156 Z M 232.101562 179.660156 " fill-opacity="1" fill-rule="nonzero"/><g clip-path="url(#65c0174c95)"><path fill="#ffffff" d="M 323.914062 179.566406 C 320.5625 179.566406 316.972656 179.183594 313.15625 178.410156 C 299.582031 176.035156 288.46875 167.113281 278.664062 159.242188 L 278.171875 158.84375 C 277.5 158.304688 277.027344 157.558594 276.828125 156.726562 C 272.277344 137.726562 268.007812 118.339844 263.875 99.585938 C 261.238281 87.613281 258.511719 75.230469 255.738281 63.089844 C 255.476562 61.949219 255.75 60.753906 256.46875 59.835938 C 257.191406 58.917969 258.289062 58.371094 259.457031 58.355469 C 272.148438 58.167969 285.039062 58.203125 297.507812 58.238281 C 302.496094 58.25 307.484375 58.261719 312.472656 58.261719 C 313.976562 58.261719 315.339844 59.128906 315.976562 60.496094 C 322.429688 74.300781 328.667969 88.457031 334.707031 102.148438 C 341.144531 116.742188 347.792969 131.832031 354.695312 146.476562 C 354.9375 146.992188 355.0625 147.554688 355.0625 148.128906 L 355.0625 155.652344 C 355.0625 156.152344 354.964844 156.648438 354.777344 157.109375 C 352.332031 163.125 348.589844 170.574219 341.285156 174.832031 C 336.527344 177.988281 330.710938 179.566406 323.914062 179.566406 Z M 323.914062 179.566406 " fill-opacity="1" fill-rule="nonzero"/></g><g clip-path="url(#8a05cecc61)"><path fill="#ffffff" d="M 27.535156 344.859375 C 24.292969 344.859375 21.117188 343.621094 18.269531 341.242188 C 17.390625 340.507812 16.886719 339.421875 16.886719 338.273438 L 16.886719 333.109375 C 16.886719 331.90625 17.445312 330.773438 18.402344 330.039062 C 23.511719 326.117188 29.433594 326.433594 34.652344 326.710938 C 35.628906 326.761719 36.582031 326.8125 37.5 326.835938 C 37.5625 304.742188 37.550781 282.34375 37.539062 260.652344 C 37.523438 236.148438 37.511719 210.8125 37.605469 185.890625 C 37.613281 184.824219 38.054688 183.804688 38.835938 183.074219 C 39.617188 182.347656 40.664062 181.96875 41.730469 182.039062 C 55.152344 182.90625 68.035156 179.925781 78.011719 173.640625 C 78.042969 173.621094 78.078125 173.601562 78.105469 173.582031 C 80.402344 172.222656 82.566406 170.589844 84.847656 168.867188 C 88.414062 166.171875 92.097656 163.386719 96.542969 161.523438 C 97.890625 160.960938 99.433594 161.199219 100.546875 162.140625 C 102.644531 163.917969 104.585938 165.847656 106.464844 167.707031 C 109.832031 171.042969 113.007812 174.191406 116.835938 176.34375 C 126.148438 181.988281 138.5625 183.589844 151.910156 180.925781 C 160.125 179.289062 168.257812 174.691406 175.433594 167.636719 C 175.511719 167.5625 175.589844 167.488281 175.675781 167.421875 C 176.074219 167.089844 176.492188 166.710938 176.929688 166.316406 C 179.625 163.882812 185.234375 158.816406 191.199219 163.253906 C 193.457031 164.957031 195.554688 166.796875 197.589844 168.574219 C 201.738281 172.203125 205.652344 175.628906 210.371094 177.628906 C 224.515625 183.925781 241.042969 183.765625 253.574219 177.230469 C 258.191406 174.917969 261.890625 171.28125 265.808594 167.429688 C 267.589844 165.675781 269.433594 163.863281 271.386719 162.164062 C 272.496094 161.199219 274.0625 160.945312 275.421875 161.515625 C 279.59375 163.257812 283.046875 165.867188 286.386719 168.386719 C 287.414062 169.160156 288.433594 169.929688 289.472656 170.675781 C 300.582031 179.085938 315.019531 183.097656 330.222656 182.042969 C 331.292969 181.972656 332.339844 182.339844 333.128906 183.070312 C 333.914062 183.796875 334.363281 184.816406 334.367188 185.890625 C 334.472656 210.335938 334.453125 235.191406 334.433594 259.222656 C 334.421875 281.390625 334.402344 304.273438 334.484375 326.84375 C 335.441406 326.820312 336.4375 326.765625 337.460938 326.707031 C 342.746094 326.40625 348.730469 326.066406 353.726562 330.328125 C 354.59375 331.066406 355.085938 332.140625 355.085938 333.277344 L 355.085938 338.4375 C 355.085938 339.828125 354.34375 341.109375 353.136719 341.800781 C 352.824219 341.980469 352.511719 342.164062 352.203125 342.355469 C 350.375 343.464844 347.894531 344.980469 344.707031 344.789062 L 338.675781 344.796875 C 325.867188 344.820312 312.617188 344.84375 299.589844 344.75 C 297.492188 344.734375 295.785156 343.046875 295.75 340.949219 C 295.640625 335.316406 295.675781 329.609375 295.714844 324.089844 C 295.757812 317.785156 295.796875 311.261719 295.621094 304.894531 C 295.617188 304.75 295.621094 304.605469 295.636719 304.457031 C 295.65625 304.21875 295.617188 304.113281 295.460938 303.964844 C 295.140625 303.652344 294.421875 303.386719 293.679688 303.476562 C 293.519531 303.496094 293.34375 303.480469 293.199219 303.507812 C 279.0625 303.480469 264.925781 303.488281 250.785156 303.492188 C 235.179688 303.496094 219.570312 303.5 203.96875 303.46875 C 203.914062 303.46875 203.863281 303.46875 203.804688 303.460938 C 201.78125 303.371094 200.753906 303.714844 200.4375 303.90625 C 200.054688 310.777344 200.125 317.796875 200.1875 324.582031 C 200.242188 329.949219 200.296875 335.496094 200.136719 340.988281 C 200.078125 343.054688 198.40625 344.703125 196.347656 344.75 C 190.316406 344.875 183.933594 344.875 175.660156 344.75 C 173.546875 344.71875 171.851562 343 171.847656 340.886719 C 171.753906 308.558594 171.773438 275.699219 171.792969 243.925781 C 171.804688 230.617188 171.808594 217.3125 171.808594 204.003906 L 171.800781 203.726562 C 171.78125 202.867188 171.742188 201.136719 171.449219 200.53125 C 169.335938 200.113281 167.035156 200.152344 164.605469 200.191406 C 163.53125 200.210938 162.460938 200.230469 161.390625 200.210938 C 137.292969 200.269531 112.71875 200.246094 88.953125 200.21875 L 80.054688 200.210938 L 79.894531 200.214844 C 79.003906 200.234375 77.207031 200.265625 76.601562 200.578125 C 76.125 203.171875 76.175781 205.945312 76.242188 208.871094 C 76.269531 210.289062 76.300781 211.753906 76.265625 213.230469 C 76.265625 225.5625 76.273438 237.984375 76.28125 250.398438 C 76.300781 280.054688 76.320312 310.71875 76.226562 340.886719 C 76.222656 343.003906 74.511719 344.730469 72.390625 344.75 C 64.109375 344.824219 55.699219 344.816406 47.574219 344.804688 C 41.253906 344.796875 34.9375 344.792969 28.617188 344.824219 C 28.242188 344.84375 27.886719 344.859375 27.535156 344.859375 Z M 24.628906 336.277344 C 25.59375 336.820312 26.761719 337.21875 28.027344 337.09375 C 28.152344 337.082031 28.273438 337.074219 28.386719 337.074219 C 34.78125 337.039062 41.171875 337.050781 47.5625 337.054688 C 54.421875 337.0625 61.476562 337.074219 68.472656 337.027344 C 68.550781 308.105469 68.539062 278.789062 68.519531 250.394531 C 68.507812 237.972656 68.503906 225.554688 68.503906 213.136719 C 68.53125 211.734375 68.507812 210.414062 68.480469 209.015625 C 68.410156 205.65625 68.339844 202.175781 69.070312 198.617188 C 69.097656 198.496094 69.128906 198.375 69.164062 198.257812 C 70.902344 192.628906 76.867188 192.515625 79.726562 192.464844 L 79.960938 192.457031 L 88.9375 192.46875 C 112.699219 192.492188 137.265625 192.515625 161.425781 192.457031 C 162.480469 192.476562 163.464844 192.457031 164.449219 192.445312 C 167.359375 192.394531 170.363281 192.34375 173.476562 193.046875 C 173.578125 193.070312 173.675781 193.09375 173.773438 193.125 C 179.324219 194.847656 179.453125 200.726562 179.515625 203.546875 L 179.527344 203.902344 C 179.527344 217.308594 179.523438 230.617188 179.511719 243.925781 C 179.492188 274.445312 179.480469 305.96875 179.554688 337.050781 C 184.382812 337.101562 188.550781 337.109375 192.445312 337.058594 C 192.5 332.910156 192.460938 328.730469 192.417969 324.65625 C 192.351562 317.71875 192.277344 310.542969 192.671875 303.445312 C 192.796875 301.492188 193.992188 295.308594 204.03125 295.71875 C 219.601562 295.753906 235.179688 295.75 250.75 295.746094 C 264.824219 295.738281 278.898438 295.734375 292.96875 295.757812 C 295.882812 295.484375 298.792969 296.449219 300.800781 298.382812 C 302.582031 300.097656 303.476562 302.390625 303.335938 304.863281 C 303.511719 311.308594 303.464844 317.832031 303.425781 324.140625 C 303.398438 328.371094 303.367188 332.710938 303.40625 337.027344 C 315.171875 337.09375 327.078125 337.074219 338.625 337.050781 L 344.796875 337.039062 C 344.902344 337.03125 345.003906 337.046875 345.109375 337.050781 C 345.6875 337.101562 346.460938 336.722656 347.304688 336.234375 L 347.304688 335.3125 C 344.800781 334.039062 341.542969 334.226562 337.863281 334.433594 C 335.328125 334.578125 332.707031 334.722656 330.089844 334.382812 C 328.164062 334.128906 326.726562 332.5 326.71875 330.5625 C 326.621094 306.777344 326.640625 282.597656 326.660156 259.210938 C 326.671875 236.503906 326.691406 213.0625 326.605469 189.9375 C 311.054688 190.171875 296.355469 185.613281 284.859375 176.90625 C 283.851562 176.1875 282.769531 175.375 281.691406 174.558594 C 279.296875 172.75 277.003906 171.019531 274.570312 169.699219 C 273.457031 170.738281 272.355469 171.824219 271.214844 172.949219 C 267.042969 177.050781 262.730469 181.296875 257.070312 184.125 C 242.554688 191.691406 223.445312 191.933594 207.257812 184.726562 C 201.46875 182.269531 196.890625 178.269531 192.464844 174.398438 C 190.445312 172.632812 188.539062 170.964844 186.527344 169.445312 C 185.886719 168.96875 184.839844 169.578125 182.089844 172.0625 C 181.621094 172.492188 181.164062 172.902344 180.726562 173.269531 C 172.5 181.320312 163.050781 186.597656 153.402344 188.523438 C 138.148438 191.570312 123.769531 189.617188 112.90625 183.03125 C 108.277344 180.425781 104.574219 176.761719 100.992188 173.210938 C 99.757812 171.992188 98.574219 170.808594 97.363281 169.691406 C 94.664062 171.140625 92.136719 173.050781 89.496094 175.046875 C 87.148438 176.820312 84.726562 178.648438 82.070312 180.222656 C 71.613281 186.800781 58.988281 190.109375 45.316406 189.929688 C 45.238281 213.539062 45.253906 237.464844 45.261719 260.644531 C 45.277344 283.5625 45.285156 307.265625 45.214844 330.582031 C 45.207031 332.542969 43.730469 334.195312 41.78125 334.417969 C 39.234375 334.703125 36.6875 334.574219 34.226562 334.441406 C 30.527344 334.246094 27.246094 334.074219 24.613281 335.277344 L 24.613281 336.277344 Z M 304.371094 293.21875 C 304.011719 293.21875 303.652344 293.199219 303.292969 293.160156 C 288.582031 293.15625 273.875 293.160156 259.164062 293.160156 C 236.960938 293.164062 214.765625 293.171875 192.574219 293.144531 C 189.683594 293.441406 186.773438 292.484375 184.742188 290.550781 C 182.925781 288.824219 182.019531 286.519531 182.167969 284.039062 C 182.082031 269.6875 182.097656 255.105469 182.109375 241.003906 C 182.121094 228.886719 182.136719 216.355469 182.082031 204.039062 C 182.019531 201.941406 181.824219 195.261719 187.644531 193.152344 C 187.789062 193.097656 187.933594 193.054688 188.085938 193.023438 C 191.066406 192.332031 193.9375 192.390625 196.710938 192.453125 C 197.882812 192.476562 198.984375 192.503906 200.058594 192.472656 L 215.0625 192.476562 C 244.113281 192.488281 273.15625 192.503906 302.207031 192.457031 C 302.277344 192.464844 302.355469 192.457031 302.425781 192.464844 C 302.753906 192.484375 303.085938 192.488281 303.425781 192.492188 C 305.535156 192.535156 308.714844 192.597656 311.148438 195.0625 C 313.628906 197.472656 313.699219 200.644531 313.75 202.75 C 313.757812 203.101562 313.761719 203.449219 313.78125 203.785156 C 313.789062 203.871094 313.792969 203.957031 313.789062 204.039062 C 313.734375 216.359375 313.75 228.890625 313.757812 241.003906 C 313.773438 255.109375 313.789062 269.691406 313.699219 284.042969 C 313.847656 286.546875 312.914062 288.867188 311.0625 290.609375 C 309.28125 292.292969 306.851562 293.21875 304.371094 293.21875 Z M 286.558594 285.414062 C 292.21875 285.414062 297.871094 285.414062 303.527344 285.417969 C 303.707031 285.417969 303.890625 285.433594 304.070312 285.457031 C 304.660156 285.539062 305.371094 285.335938 305.753906 284.972656 C 305.96875 284.769531 305.976562 284.632812 305.960938 284.472656 C 305.953125 284.363281 305.949219 284.253906 305.953125 284.140625 C 306.046875 269.769531 306.03125 255.152344 306.015625 241.015625 C 306.007812 228.925781 305.992188 216.429688 306.046875 204.125 C 306.027344 203.738281 306.015625 203.332031 306.007812 202.925781 C 305.992188 202.261719 305.960938 200.878906 305.753906 200.617188 C 305.714844 200.585938 305.675781 200.546875 305.640625 200.507812 C 305.417969 200.277344 303.972656 200.25 303.273438 200.234375 C 302.878906 200.226562 302.496094 200.21875 302.117188 200.199219 C 273.09375 200.246094 244.078125 200.230469 215.058594 200.21875 L 200.175781 200.214844 C 199.015625 200.253906 197.757812 200.226562 196.535156 200.195312 C 194.277344 200.140625 192.140625 200.097656 190.203125 200.488281 C 190.089844 200.636719 189.75 201.324219 189.824219 203.90625 C 189.878906 216.347656 189.867188 228.886719 189.851562 241.015625 C 189.839844 255.148438 189.824219 269.769531 189.917969 284.140625 C 189.917969 284.253906 189.910156 284.371094 189.902344 284.480469 C 189.886719 284.664062 189.90625 284.777344 190.085938 284.941406 C 190.421875 285.257812 191.128906 285.53125 191.851562 285.433594 C 192.019531 285.410156 192.179688 285.351562 192.359375 285.398438 C 214.621094 285.421875 236.894531 285.417969 259.164062 285.414062 C 268.296875 285.417969 277.425781 285.414062 286.558594 285.414062 Z M 286.558594 285.414062 " fill-opacity="1" fill-rule="nonzero"/></g><path fill="#ffffff" d="M 127.128906 344.800781 C 113.527344 344.800781 98.898438 344.792969 82.75 344.769531 C 80.617188 344.761719 78.886719 343.035156 78.882812 340.902344 C 78.808594 299.859375 78.808594 255.964844 78.882812 206.714844 C 78.886719 204.582031 80.613281 202.851562 82.746094 202.847656 C 110.144531 202.769531 137.925781 202.769531 165.308594 202.847656 C 167.441406 202.851562 169.171875 204.582031 169.171875 206.71875 C 169.214844 259.03125 169.214844 301.671875 169.171875 340.902344 C 169.167969 343.035156 167.441406 344.769531 165.304688 344.769531 C 153.292969 344.792969 140.730469 344.800781 127.128906 344.800781 Z M 86.621094 337.027344 C 115.457031 337.0625 139.4375 337.0625 161.429688 337.027344 C 161.46875 299.835938 161.46875 259.433594 161.429688 210.574219 C 136.59375 210.511719 111.464844 210.511719 86.621094 210.574219 C 86.558594 256.726562 86.558594 298.183594 86.621094 337.027344 Z M 86.621094 337.027344 " fill-opacity="1" fill-rule="nonzero"/><path fill="#ffffff" d="M 250.722656 282.847656 C 232.183594 282.847656 213.949219 282.828125 196.34375 282.808594 C 194.210938 282.804688 192.480469 281.082031 192.476562 278.949219 C 192.398438 254.253906 192.425781 229.71875 192.460938 206.699219 C 192.464844 204.566406 194.195312 202.839844 196.328125 202.832031 C 236.707031 202.789062 269.5 202.789062 299.535156 202.832031 C 301.667969 202.839844 303.398438 204.5625 303.402344 206.695312 C 303.464844 230.660156 303.464844 254.964844 303.402344 278.933594 C 303.398438 281.066406 301.667969 282.789062 299.542969 282.796875 C 283.167969 282.835938 266.828125 282.847656 250.722656 282.847656 Z M 250.722656 282.847656 " fill-opacity="1" fill-rule="nonzero"/><path fill="#ffffff" d="M 246.074219 344.804688 C 232.382812 344.804688 219.308594 344.789062 206.660156 344.753906 C 204.535156 344.75 202.8125 343.035156 202.796875 340.910156 C 202.71875 330.636719 202.71875 320.226562 202.796875 309.953125 C 202.8125 307.828125 204.535156 306.113281 206.660156 306.109375 C 236.914062 306.039062 263.914062 306.039062 289.210938 306.109375 C 291.328125 306.113281 293.050781 307.824219 293.070312 309.941406 C 293.175781 320.273438 293.125 330.761719 293.070312 340.902344 C 293.0625 343.027344 291.339844 344.75 289.210938 344.753906 C 274.085938 344.792969 259.765625 344.804688 246.074219 344.804688 Z M 210.515625 337.019531 C 233.605469 337.078125 258.167969 337.078125 285.347656 337.019531 C 285.386719 329.375 285.414062 321.574219 285.363281 313.84375 C 262.269531 313.785156 237.707031 313.785156 210.519531 313.84375 C 210.472656 321.550781 210.472656 329.316406 210.515625 337.019531 Z M 210.515625 337.019531 " fill-opacity="1" fill-rule="nonzero"/></svg>